# xmcd
#
# Track frame offsets:
#	150
#	25028
#	43097
#	59871
#	85000
#	101262
#	112031
#	133476
#	150108
# Disc length: 2278 seconds
# Revision: 1
# Processed by: cddbd v1.5.2PL0 Copyright (c) Steve Scherf et al.
#
# Submitted via: libkcddb 0.31
#
DISCID=7008e409
DTITLE=Little Angel and the Bonecrashers - Little Angel and the Bonecrashers
DYEAR=2006
DGENRE=Country
TTITLE0=The River Song
TTITLE1=Billy The Kid
TTITLE2=Willin'
TTITLE3=The End Of The Story
TTITLE4=Ballad Of A Little Angel
TTITLE5=Watch Me Fall
TTITLE6=Sad Icecream Man
TTITLE7=Shaking Hands (Soldier's Joy)
TTITLE8=Desert Lament
EXTD=
EXTT0=
EXTT1=
EXTT2=
EXTT3=
EXTT4=
EXTT5=
EXTT6=
EXTT7=
EXTT8=
PLAYORDER=
